<?xml version="1.0" encoding="utf-8"?>
<!-- Generator: Adobe Illustrator 23.1.0, SVG Export Plug-In . SVG Version: 6.00 Build 0)  -->
<svg version="1.1" xmlns="http://www.w3.org/2000/svg" xmlns:xlink="http://www.w3.org/1999/xlink" x="0px" y="0px"
	 viewBox="0 0 3600 3600" style="enable-background:new 0 0 3600 3600;" xml:space="preserve">
<style type="text/css">
	.st0{fill:#CCCCCC;}
	.st1{fill:#969696;}
	.st2{fill:#666666;}
	.st3{fill:#444444;}
	.st4{fill:#212121;}
	.st5{fill:#1C1C1C;}
	.st6{fill:#303030;}
	.st7{fill:#494949;}
	.st8{fill:none;stroke:#000000;stroke-width:5;stroke-miterlimit:10;}
	.st9{display:none;}
	.st10{display:inline;}
	.st11{fill:#6B6B6B;}
	.st12{display:inline;fill:none;}
	.st13{font-family:'MyriadPro-Regular';}
	.st14{font-size:500px;}
	.st15{fill:#7A7A7A;}
	.st16{font-size:300px;}
	.st17{fill:#757575;}
	.st18{fill:#AAAAAA;}
	.st19{fill:none;}
	.st20{font-size:100px;}
</style>
<g id="Layer_6">
	<circle class="st0" cx="1800" cy="1800" r="1708"/>
	<circle class="st1" cx="1800" cy="1800" r="1497"/>
	<circle class="st2" cx="1800" cy="1800" r="1472"/>
	<circle class="st3" cx="1800" cy="1800" r="1429"/>
	<circle class="st4" cx="1800" cy="1800" r="1361"/>
	<circle cx="1800" cy="1800" r="1263"/>
	<circle class="st5" cx="1800" cy="1800" r="1109"/>
	<circle class="st6" cx="1800" cy="1800" r="914"/>
	<circle class="st7" cx="1800" cy="1800" r="665"/>
</g>
<g id="Circle">
	<g>
		<path d="M1798.96,0.52c156.74,0,313.74,20.77,466.65,61.75c117.9,31.59,232.55,75.04,340.75,129.14
			c105.45,52.73,206.07,116.2,299.05,188.65c91.3,71.14,176.16,151.65,252.24,239.31c75.36,86.82,142.75,181.39,200.32,281.1
			c57.56,99.71,105.77,205.36,143.28,314.03c37.87,109.71,65.16,223.47,81.12,338.1c16.26,116.75,20.92,235.63,13.85,353.31
			c-7.25,120.76-26.94,241.77-58.53,359.67c-52.68,196.61-136.96,380.81-250.5,547.48c-109.75,161.11-244.56,302.7-400.69,420.83
			c-76.68,58.02-158.66,110.31-243.66,155.41c-85.12,45.17-174.48,83.77-265.59,114.73c-186.27,63.29-380.11,95.39-576.14,95.39
			c-156.8,0-313.84-20.77-466.74-61.75c-117.9-31.59-232.55-75.04-340.75-129.14c-105.45-52.73-206.07-116.2-299.05-188.65
			c-91.3-71.14-176.16-151.65-252.24-239.31c-75.36-86.82-142.76-181.39-200.32-281.1c-57.57-99.7-105.77-205.36-143.28-314.03
			c-37.87-109.71-65.16-223.47-81.12-338.1C1.36,1930.58-3.3,1811.71,3.76,1694.02c7.25-120.76,26.94-241.77,58.53-359.67
			c52.68-196.61,136.96-380.81,250.5-547.47c109.75-161.1,244.56-302.69,400.69-420.82c76.68-58.02,158.66-110.31,243.66-155.4
			c85.12-45.17,174.48-83.77,265.59-114.73c186.27-63.3,380.11-95.39,576.14-95.4H1798.96 M1798.87-0.48
			C1004.15-0.44,276.81,529.93,61.33,1334.09c-257.3,960.24,312.55,1947.25,1272.79,2204.54c156.07,41.82,312.76,61.78,467,61.78
			c794.72,0,1522.06-530.41,1737.54-1334.57C3795.96,1305.6,3226.11,318.6,2265.87,61.3C2109.8,19.48,1953.11-0.49,1798.87-0.48
			L1798.87-0.48z"/>
	</g>
	<line class="st8" x1="2265.39" y1="61.17" x2="1333.77" y2="3538.02"/>
	<line class="st8" x1="1333.77" y1="61.17" x2="2265.39" y2="3538.02"/>
	<line class="st8" x1="526.96" y1="526.98" x2="3072.19" y2="3072.21"/>
	<line class="st8" x1="61.15" y1="1333.79" x2="3538" y2="2265.41"/>
	<line class="st8" x1="61.15" y1="2265.41" x2="3538" y2="1333.79"/>
	<line class="st8" x1="526.96" y1="3072.21" x2="3072.19" y2="526.98"/>
</g>
<g id="Layer_2" class="st9">
	<g class="st10">
		<rect x="965" class="st11" width="1600" height="900"/>
	</g>
	<rect x="1594.36" y="263.96" class="st12" width="425.64" height="495.04"/>
	<text transform="matrix(1 0 0 1 1594.3599 618.9561)" class="st10 st13 st14">1</text>
</g>
<g id="Layer_3" class="st9">
	<g class="st10">
		<rect x="1629" class="st15" width="360" height="360"/>
	</g>
	<rect x="1725.27" y="51.79" class="st12" width="255.73" height="238.21"/>
	<text transform="matrix(1 0 0 1 1725.27 264.7891)" class="st10 st13 st16">1</text>
</g>
<g id="Layer_4" class="st9">
	<g class="st10">
		<polygon class="st17" points="1469.38,566.5 1334.65,61.5 2264.35,61.5 2129.62,566.5 		"/>
		<path d="M2263.7,62l-134.47,504h-659.46L1335.3,62H2263.7 M2265,61h-931l135,506h661L2265,61L2265,61z"/>
	</g>
	<g class="st10">
		<rect x="1441.5" y="61.5" class="st18" width="713" height="400"/>
		<path d="M2154,62v399h-712V62H2154 M2155,61h-714v401h714V61L2155,61z"/>
	</g>
</g>
<g id="Cities">

		<rect x="2521.65" y="163.08" transform="matrix(0.5 -0.866 0.866 0.5 891.6478 2458.7302)" class="st19" width="107" height="588.2"/>
	<text transform="matrix(0.866 0.5 -0.5 0.866 2436.5378 397.3566)" class="st13 st20">Mexico</text>

		<rect x="3089.19" y="730.55" transform="matrix(0.866 -0.5 0.5 0.866 -91.2845 1708.6233)" class="st19" width="107" height="588.2"/>
	<text transform="matrix(0.5 0.866 -0.866 0.5 3071.3142 936.0187)" class="st13 st20">Brazil</text>
	<rect x="3296.96" y="1505.77" class="st19" width="107" height="588.2"/>
	<text transform="matrix(-6.123234e-17 1 -1 -6.123234e-17 3332.9648 1600.2241)" class="st13 st20">New York</text>

		<rect x="2848.69" y="2521.62" transform="matrix(0.5 -0.866 0.866 0.5 -658.7241 4009.2935)" class="st19" width="588.2" height="107"/>
	<text transform="matrix(-0.5 0.866 -0.866 -0.5 3208.7314 2425.9011)" class="st13 st20">London</text>

		<rect x="2281.21" y="3089.16" transform="matrix(0.866 -0.5 0.5 0.866 -1226.3057 1708.6934)" class="st19" width="588.2" height="107"/>
	<text transform="matrix(-0.866 0.5 -0.5 -0.866 2651.9075 3078.2356)" class="st13 st20">Paris</text>
	<rect x="1505.99" y="3296.94" class="st19" width="588.2" height="107"/>
	<text transform="matrix(-1 0 0 -1 1888.041 3332.9365)" class="st13 st20">Italy</text>

		<rect x="971.34" y="2848.66" transform="matrix(0.5 -0.866 0.866 0.5 -2209.2876 2458.9216)" class="st19" width="107" height="588.2"/>
	<text transform="matrix(-0.866 -0.5 0.5 -0.866 1138.4685 3188.1541)" class="st13 st20">Egypt</text>

		<rect x="403.8" y="2281.18" transform="matrix(0.866 -0.5 0.5 0.866 -1226.3757 573.6723)" class="st19" width="107" height="588.2"/>
	<text transform="matrix(-0.5 -0.866 0.866 -0.5 524.3032 2656.3401)" class="st13 st20">India</text>
	<rect x="196.03" y="1505.96" class="st19" width="107" height="588.2"/>
	<text transform="matrix(6.123234e-17 -1 1 6.123234e-17 267.0271 1979.4111)" class="st13 st20">Malaysia</text>

		<rect x="163.1" y="971.32" transform="matrix(0.5 -0.866 0.866 0.5 -658.9156 908.3582)" class="st19" width="588.2" height="107"/>
	<text transform="matrix(0.5 -0.866 0.866 0.5 412.2089 1137.7474)" class="st13 st20">China</text>

		<rect x="730.58" y="403.77" transform="matrix(0.866 -0.5 0.5 0.866 -91.3546 573.6022)" class="st19" width="588.2" height="107"/>
	<text transform="matrix(0.866 -0.5 0.5 0.866 926.9956 533.8745)" class="st13 st20">Japan</text>
	<rect x="1505.8" y="196" class="st19" width="588.2" height="107"/>
	<text transform="matrix(1 0 0 1 1516.5029 266.999)" class="st13 st20">San Francisco</text>
</g>
</svg>
