<?xml version="1.0" encoding="utf-8"?>
<!-- Generator: Adobe Illustrator 23.1.0, SVG Export Plug-In . SVG Version: 6.00 Build 0)  -->
<svg version="1.1" id="Layer_1" xmlns="http://www.w3.org/2000/svg" xmlns:xlink="http://www.w3.org/1999/xlink" x="0px" y="0px"
	 viewBox="0 0 3600 3600" style="enable-background:new 0 0 3600 3600;" xml:space="preserve">
<style type="text/css">
	.st0{fill:#CCCCCC;}
	.st1{fill:#969696;}
	.st2{fill:#666666;}
	.st3{fill:#444444;}
	.st4{fill:#212121;}
	.st5{fill:#1C1C1C;}
	.st6{fill:#303030;}
	.st7{fill:#494949;}
	.st8{fill:none;stroke:#000000;stroke-width:5;stroke-miterlimit:10;}
	.st9{display:none;}
	.st10{display:inline;}
	.st11{fill:#6B6B6B;}
	.st12{display:inline;fill:none;}
	.st13{font-family:'ArialMT';}
	.st14{font-size:500px;}
	.st15{fill:#7A7A7A;}
	.st16{font-size:300px;}
	.st17{fill:#757575;}
	.st18{fill:#AAAAAA;}
	.st19{fill:none;}
	.st20{font-size:100px;}
</style>
<g id="Layer_6">
	<circle class="st0" cx="1800" cy="1800" r="1708"/>
	<circle class="st1" cx="1800" cy="1800" r="1497"/>
	<circle class="st2" cx="1800" cy="1800" r="1479.7"/>
	<circle class="st3" cx="1800" cy="1800" r="1457.6"/>
	<circle class="st4" cx="1800" cy="1800" r="1422.6"/>
	<circle cx="1800" cy="1800" r="1367.8"/>
	<circle class="st5" cx="1800" cy="1800" r="1287.9"/>
	<circle class="st6" cx="1800" cy="1800" r="1182.1"/>
	<circle class="st7" cx="1800" cy="1800" r="1050"/>
</g>
<g id="Circle">
	<g>
		<path d="M1799,0.5c156.7,0,313.7,20.8,466.6,61.8c117.9,31.6,232.6,75,340.8,129.1c105.4,52.7,206.1,116.2,299.1,188.6
			c91.3,71.1,176.2,151.6,252.2,239.3c75.4,86.8,142.8,181.4,200.3,281.1c57.6,99.7,105.8,205.4,143.3,314
			c37.9,109.7,65.2,223.5,81.1,338.1c16.3,116.8,20.9,235.6,13.9,353.3c-7.3,120.8-26.9,241.8-58.5,359.7
			c-52.7,196.6-137,380.8-250.5,547.5c-109.8,161.1-244.6,302.7-400.7,420.8c-76.7,58-158.7,110.3-243.7,155.4
			c-85.1,45.2-174.5,83.8-265.6,114.7c-186.3,63.3-380.1,95.4-576.1,95.4c-156.8,0-313.8-20.8-466.7-61.8
			c-117.9-31.6-232.6-75-340.8-129.1c-105.5-52.7-206.1-116.2-299-188.6c-91.3-71.1-176.2-151.6-252.2-239.3
			c-75.4-86.8-142.8-181.4-200.3-281.1c-57.6-99.7-105.8-205.4-143.3-314c-37.9-109.7-65.2-223.5-81.1-338.1
			C1.4,1930.6-3.3,1811.7,3.8,1694c7.3-120.8,26.9-241.8,58.5-359.7c52.7-196.6,137-380.8,250.5-547.5
			c109.8-161.1,244.6-302.7,400.7-420.8c76.7-58,158.7-110.3,243.7-155.4c85.1-45.2,174.5-83.8,265.6-114.7
			C1409,32.6,1602.8,0.5,1799,0.5L1799,0.5 M1798.9-0.5C1004.2-0.4,276.8,529.9,61.3,1334.1C-196,2294.3,373.9,3281.3,1334.1,3538.6
			c156.1,41.8,312.8,61.8,467,61.8c794.7,0,1522.1-530.4,1737.5-1334.6C3796,1305.6,3226.1,318.6,2265.9,61.3
			C2109.8,19.5,1953.1-0.5,1798.9-0.5L1798.9-0.5z"/>
	</g>
	<line class="st8" x1="2265.4" y1="61.2" x2="1333.8" y2="3538"/>
	<line class="st8" x1="1333.8" y1="61.2" x2="2265.4" y2="3538"/>
	<line class="st8" x1="527" y1="527" x2="3072.2" y2="3072.2"/>
	<line class="st8" x1="61.2" y1="1333.8" x2="3538" y2="2265.4"/>
	<line class="st8" x1="61.2" y1="2265.4" x2="3538" y2="1333.8"/>
	<line class="st8" x1="527" y1="3072.2" x2="3072.2" y2="527"/>
</g>
<g class="st9">
	<g class="st10">
		<rect x="965" class="st11" width="1600" height="900"/>
	</g>
	<rect x="1594.4" y="264" class="st12" width="425.6" height="495"/>
	<text transform="matrix(1 0 0 1 1594.3599 618.9561)" class="st10 st13 st14">1</text>
</g>
<g id="Layer_3" class="st9">
	<g class="st10">
		<rect x="1629" class="st15" width="360" height="360"/>
	</g>
	<rect x="1725.3" y="51.8" class="st12" width="255.7" height="238.2"/>
	<text transform="matrix(1 0 0 1 1725.27 264.7891)" class="st10 st13 st16">1</text>
</g>
<g id="Layer_4" class="st9">
	<g class="st10">
		<polygon class="st17" points="1469.4,566.5 1334.7,61.5 2264.4,61.5 2129.6,566.5 		"/>
		<path d="M2263.7,62l-134.5,504h-659.5L1335.3,62H2263.7 M2265,61h-931l135,506h661L2265,61L2265,61z"/>
	</g>
	<g class="st10">
		<rect x="1441.5" y="61.5" class="st18" width="713" height="400"/>
		<path d="M2154,62v399h-712V62H2154 M2155,61h-714v401h714V61L2155,61z"/>
	</g>
</g>
<g id="Cities">
	
		<rect x="2521.6" y="163.1" transform="matrix(0.5 -0.866 0.866 0.5 891.5631 2458.7361)" class="st19" width="107" height="588.2"/>
	<text transform="matrix(0.866 0.5 -0.5 0.866 2436.5378 397.3566)" class="st13 st20">Mexico</text>
	<rect x="3089.1" y="730.5" transform="matrix(0.866 -0.5 0.5 0.866 -91.274 1708.6199)" class="st19" width="107" height="588.2"/>
	<text transform="matrix(0.5 0.866 -0.866 0.5 3071.3137 936.0186)" class="st13 st20">Brazil</text>
	<rect x="3297" y="1505.8" class="st19" width="107" height="588.2"/>
	<text transform="matrix(-6.123234e-17 1 -1 -6.123234e-17 3332.9648 1600.2241)" class="st13 st20">England</text>
	
		<rect x="2848.6" y="2521.7" transform="matrix(0.5 -0.866 0.866 0.5 -658.8422 4009.23)" class="st19" width="588.2" height="107"/>
	<text transform="matrix(-0.5 0.866 -0.866 -0.5 3208.7307 2425.9011)" class="st13 st20">France</text>
	
		<rect x="2281.1" y="3089.1" transform="matrix(0.866 -0.5 0.5 0.866 -1226.292 1708.6958)" class="st19" width="588.2" height="107"/>
	<text transform="matrix(-0.866 0.5 -0.5 -0.866 2651.907 3078.2356)" class="st13 st20">Italy</text>
	<rect x="1506" y="3296.9" class="st19" width="588.2" height="107"/>
	<text transform="matrix(-1 0 0 -1 1888.041 3332.9375)" class="st13 st20">Turkey</text>
	
		<rect x="971.3" y="2848.7" transform="matrix(0.5 -0.866 0.866 0.5 -2209.3462 2458.8242)" class="st19" width="107" height="588.2"/>
	<text transform="matrix(-0.866 -0.5 0.5 -0.866 1138.4685 3188.1545)" class="st13 st20">Egypt</text>
	
		<rect x="403.8" y="2281.1" transform="matrix(0.866 -0.5 0.5 0.866 -1226.368 573.6777)" class="st19" width="107" height="588.2"/>
	<text transform="matrix(-0.5 -0.866 0.866 -0.5 524.3034 2656.3406)" class="st13 st20">India</text>
	<rect x="196" y="1506" class="st19" width="107" height="588.2"/>
	<text transform="matrix(6.123234e-17 -1 1 6.123234e-17 267.0271 1979.4102)" class="st13 st20">Cambodia</text>
	<rect x="163.1" y="971.3" transform="matrix(0.5 -0.866 0.866 0.5 -658.9407 908.3306)" class="st19" width="588.2" height="107"/>
	<text transform="matrix(0.5 -0.866 0.866 0.5 412.2087 1137.7478)" class="st13 st20">China</text>
	<rect x="730.6" y="403.8" transform="matrix(0.866 -0.5 0.5 0.866 -91.35 573.6017)" class="st19" width="588.2" height="107"/>
	<text transform="matrix(0.866 -0.5 0.5 0.866 926.9957 533.8747)" class="st13 st20">Japan</text>
	<rect x="1505.8" y="196" class="st19" width="588.2" height="107"/>
	<text transform="matrix(1 0 0 1 1516.5029 266.999)" class="st13 st20">United States</text>
</g>
</svg>
